<?xml version="1.0" encoding="iso-8859-1"?>
<!-- Generator: Adobe Illustrator 19.0.0, SVG Export Plug-In . SVG Version: 6.00 Build 0)  -->
<svg version="1.1" id="Layer_1" xmlns="http://www.w3.org/2000/svg" xmlns:xlink="http://www.w3.org/1999/xlink" x="0px" y="0px"
	 viewBox="0 0 512 512" style="enable-background:new 0 0 512 512;" xml:space="preserve">
<g transform="translate(1 1)">
	<g>
		<g>
			<path d="M88.383,39.786c1.736,1.736,3.471,2.603,6.075,2.603s4.339-0.868,6.075-2.603c3.471-3.471,3.471-8.678,0-12.149
				L75.983,3.088C74.564,0.536,71.881-1,68.424-1c0,0,0,0,0,0h0c-3.457,0-6.141,1.536-7.56,4.088L36.315,27.637
				c-3.471,3.471-3.471,8.678,0,12.149s8.678,3.471,12.149,0l11.281-11.281v79.837L48.464,97.061c-3.471-3.471-8.678-3.471-12.149,0
				s-3.471,8.678,0,12.149l24.549,24.549c1.419,2.552,4.103,4.088,7.56,4.088c3.457,0,6.141-1.536,7.56-4.088l24.549-24.549
				c3.471-3.471,3.471-8.678,0-12.149s-8.678-3.471-12.149,0l-11.281,11.281V28.505L88.383,39.786z"/>
			<path d="M437.237,181.237c-7.81,0-15.62,2.603-21.695,7.81v-7.81c0-20.827-16.488-43.39-39.051-43.39
				c-7.81,0-15.62,2.603-21.695,7.81V42.39c0-20.827-16.488-43.39-39.051-43.39c-9.546,0-18.224,4.339-25.166,11.281
				c-6.942,6.075-11.281,14.753-13.017,23.43c-6.075-5.207-13.885-8.678-22.563-8.678c-22.563,0-39.051,22.563-39.051,43.39v157.939
				c-7.81-16.488-18.224-32.108-28.637-42.522c-13.885-13.885-41.654-14.753-57.275-1.736c-4.339,4.339-19.092,19.959,0.868,47.729
				c18.224,26.034,32.976,83.308,32.976,116.285c0,69.424,45.125,100.664,60.746,109.342v46.861c0,5.207,3.471,8.678,8.678,8.678
				s8.678-3.471,8.678-8.678v-52.068c0-3.471-1.736-6.075-5.207-7.81c-2.603-0.868-55.539-26.034-55.539-96.325
				c0-32.108-13.885-95.458-36.447-126.698c-6.075-7.81-11.281-18.224-3.471-24.298c8.678-6.942,26.034-6.942,33.844,0.868
				c21.695,21.695,40.786,67.688,40.786,89.383c0,5.207,3.471,8.678,8.678,8.678s8.678-3.471,8.678-8.678V68.424
				c0-12.149,9.546-26.034,21.695-26.034s21.695,13.885,21.695,26.034v164.881c0,5.207,3.471,8.678,8.678,8.678
				s8.678-3.471,8.678-8.678V42.39c0-6.942,3.471-14.753,8.678-19.959c3.471-3.471,8.678-6.075,13.017-6.075
				c12.149,0,21.695,13.885,21.695,26.034v199.593c0,5.207,3.471,8.678,8.678,8.678s8.678-3.471,8.678-8.678v-60.746
				c0-12.149,9.546-26.034,21.695-26.034s21.695,13.885,21.695,26.034v41.654c0,0.868,0,0.868,0,1.736v34.712
				c0,5.207,3.471,8.678,8.678,8.678c5.207,0,8.678-3.471,8.678-8.678v-36.447c0.868-11.281,10.414-24.298,21.695-24.298
				c12.149,0,21.695,13.885,21.695,26.034v121.492c0,65.953,0,65.953-24.298,98.929c-1.736,1.736-1.736,4.339-1.736,6.075v51.2
				c0,5.207,3.471,8.678,8.678,8.678c5.207,0,8.678-3.471,8.678-7.81v-49.464c26.034-35.58,26.034-39.051,26.034-107.607V224.627
				C476.288,203.8,459.8,181.237,437.237,181.237z"/>
			<path d="M346.119,441.576c5.207,0,8.678-3.471,8.678-8.678s-3.471-8.678-8.678-8.678h-26.034c-5.207,0-8.678,3.471-8.678,8.678
				s3.471,8.678,8.678,8.678H346.119z"/>
			<path d="M354.797,458.932h-43.39c-5.207,0-8.678,3.471-8.678,8.678s3.471,8.678,8.678,8.678h43.39
				c5.207,0,8.678-3.471,8.678-8.678S360.003,458.932,354.797,458.932z"/>
		</g>
	</g>
</g>
<g>
</g>
<g>
</g>
<g>
</g>
<g>
</g>
<g>
</g>
<g>
</g>
<g>
</g>
<g>
</g>
<g>
</g>
<g>
</g>
<g>
</g>
<g>
</g>
<g>
</g>
<g>
</g>
<g>
</g>
</svg>
