<?xml version="1.0" encoding="utf-8"?>
<!-- Generator: Adobe Illustrator 21.0.2, SVG Export Plug-In . SVG Version: 6.00 Build 0)  -->
<svg version="1.1" id="Capa_1" xmlns="http://www.w3.org/2000/svg" xmlns:xlink="http://www.w3.org/1999/xlink" x="0px" y="0px"
	 viewBox="0 0 377.3 377.3" style="enable-background:new 0 0 377.3 377.3;" xml:space="preserve">
<path d="M253.4,22.5H124.2c-6.2,0-11.3,5.1-11.3,11.3v132c0,6.2,5.1,11.3,11.3,11.3h129.2c6.2,0,11.3-5.1,11.3-11.3v-132
	C264.7,27.6,259.6,22.5,253.4,22.5z M223.2,100.5c-0.5,0.6-1.3,0.9-2,0.6l-21.9-0.1v42.1c0,1-0.8,1.8-1.8,1.8H180
	c-1,0-1.7-0.8-1.8-1.8l0-42.1l-21.9,0.1c-0.7,0.3-1.6,0-2-0.6c-0.5-0.6-0.5-1.5,0-2.1l33-43c0.3-0.4,0.9-0.7,1.4-0.7
	c0.5,0,1.1,0.3,1.4,0.7l33,43c0.2,0.3,0.4,0.7,0.4,1.1C223.6,99.8,223.5,100.2,223.2,100.5z M272.7,165.7c0,10.6-8.6,19.3-19.3,19.3
	H124.2c-10.6,0-19.3-8.6-19.3-19.3v-132c0-10.6,8.6-19.3,19.3-19.3h129.2c10.6,0,19.3,8.6,19.3,19.3V165.7z"/>
<path d="M264.7,343.7v-132c0-6.2-5.1-11.3-11.3-11.3H124.2c-6.2,0-11.3,5.1-11.3,11.3v132c0,6.2,5.1,11.3,11.3,11.3h129.2
	C259.6,355,264.7,350,264.7,343.7z M223.6,278.1c0,0.4-0.1,0.7-0.4,1.1l-33,43c-0.3,0.4-0.8,0.7-1.4,0.7c-0.5,0-1.1-0.3-1.4-0.7
	l-33-43c-0.5-0.6-0.5-1.5,0-2.1c0.5-0.6,1.3-0.9,2-0.6l21.9,0.1l0-42.1c0-1,0.8-1.8,1.8-1.8h17.5c1,0,1.8,0.8,1.8,1.8v42.1l21.9-0.1
	c0.7-0.3,1.6-0.1,2,0.6C223.5,277.4,223.6,277.7,223.6,278.1z M272.7,343.7c0,10.6-8.6,19.3-19.3,19.3H124.2
	c-10.6,0-19.3-8.6-19.3-19.3v-132c0-10.6,8.6-19.3,19.3-19.3h129.2c10.6,0,19.3,8.6,19.3,19.3V343.7z"/>
</svg>
